HIERARCHY
ROOT Hips
{
    OFFSET 13.53184700012207 83.40420532226562 -17.046546936035156
    CHANNELS 6 Xposition Yposition Zposition Zrotation Xrotation Yrotation
    JOINT RightUpLeg
    {
        OFFSET -13.53184700012207 0.0 0.0
        CHANNELS 3 Zrotation Xrotation Yrotation
        JOINT RightLeg
        {
            OFFSET 0.0 -40.78783416748047 0.0
            CHANNELS 3 Zrotation Xrotation Yrotation
            JOINT RightFoot
            {
                OFFSET 0.0 -42.616371154785156 0.0
                CHANNELS 3 Zrotation Xrotation Yrotation
                End Site
                {
                    OFFSET 0.0 0.0 17.046546936035156
                }
            }
        }
    }
    JOINT LeftUpLeg
    {
        OFFSET 13.53184700012207 0.0 0.0
        CHANNELS 3 Zrotation Xrotation Yrotation
        JOINT LeftLeg
        {
            OFFSET 0.0 -40.78783416748047 0.0
            CHANNELS 3 Zrotation Xrotation Yrotation
            JOINT LeftFoot
            {
                OFFSET 0.0 -42.616371154785156 0.0
                CHANNELS 3 Zrotation Xrotation Yrotation
                End Site
                {
                    OFFSET 0.0 0.0 17.046546936035156
                }
            }
        }
    }
    JOINT Spine
    {
        OFFSET 0.0 23.511629104614258 0.0
        CHANNELS 3 Zrotation Xrotation Yrotation
        JOINT Spine3
        {
            OFFSET 0.0 24.256099700927734 0.0
            CHANNELS 3 Zrotation Xrotation Yrotation
            JOINT Neck
            {
                OFFSET 0.0 9.044340133666992 0.0
                CHANNELS 3 Zrotation Xrotation Yrotation
                End Site
                {
                    OFFSET 0.0 3.6177361011505127 0.0
                }
            }
            JOINT LeftArm
            {
                OFFSET 14.135832786560059 0.0 0.0
                CHANNELS 3 Zrotation Xrotation Yrotation
                JOINT LeftForeArm
                {
                    OFFSET 25.985118865966797 0.0 0.0
                    CHANNELS 3 Zrotation Xrotation Yrotation
                    JOINT LeftHand
                    {
                        OFFSET 18.28965187072754 0.0 0.0
                        CHANNELS 3 Zrotation Xrotation Yrotation
                        End Site
                        {
                            OFFSET 7.315860748291016 0.0 0.0
                        }
                    }
                }
            }
            JOINT RightArm
            {
                OFFSET -14.135832786560059 0.0 0.0
                CHANNELS 3 Zrotation Xrotation Yrotation
                JOINT RightForeArm
                {
                    OFFSET -25.985118865966797 0.0 0.0
                    CHANNELS 3 Zrotation Xrotation Yrotation
                    JOINT RightHand
                    {
                        OFFSET -18.28965187072754 0.0 0.0
                        CHANNELS 3 Zrotation Xrotation Yrotation
                        End Site
                        {
                            OFFSET -7.315860748291016 0.0 0.0
                        }
                    }
                }
            }
        }
    }
}
MOTION
Frames: 6
Frame Time: 0.03333333333333333
-0.0005015351343899965 60.388980865478516 -0.0010812178952619433 39.355596893670224 -9.52872771638233 78.21600998380487 8.224862320228326 -22.92756527625741 1.4420020110172975 40.95226477494736 81.91509529387362 -44.09147081909935 -2.385416011097637e-15 -7.034663162517441e-32 3.379339349054986e-15 -1.1857255133810491 -21.66302567298197 -2.0894788230530055 29.96069810420048 81.57488332510052 -24.45931451596236 -7.951386703658794e-16 6.207055731633035e-32 -8.945310041616142e-15 4.504999330006441 19.603184577254115 -0.0037604821840470514 -3.232247992252243e-07 4.87993897044359e-07 9.048829769847805 0.57973397976571 8.413309308740018 178.08685259625867 114.46507591178084 -15.478793508552226 -165.83512532206748 -9.886871763717024e-07 -1.6451304640326592e-06 77.42122249124341 0.0 -9.93923337957349e-17 0.0 -125.5212489320488 -9.778966599774792 150.0686498948019 7.195391905050811e-07 1.1549034678144219e-06 -45.9051937358803 0.0 0.0 -3.975693351829396e-16
-0.0004962088423781097 60.388980865478516 -0.0010785835329443216 39.32889352329112 -9.524733064293372 78.16945611460744 8.295398446642364 -23.01937858669236 1.438903112844049 39.96628725731027 82.16305609944585 -43.100820354522384 -4.827710013492361e-32 3.975693351829397e-15 1.391492673140289e-15 -1.0673698610275673 -21.679215091207073 -2.0812879481053783 29.210609680351034 81.3875974699889 -23.72877655928882 7.951386703658791e-16 3.310429723537619e-32 4.770832022195274e-15 4.4305036020804565 19.595955467994195 0.05221325507031892 -1.443304839687139e-06 1.1174906289299615e-06 8.95364666404328 0.5535477437036033 8.42465640596987 178.09714638713876 114.51135993572863 -15.4853931392299 -165.83757093974603 2.073105154232177e-06 1.0294959657815242e-06 76.53342687514638 1.590277340731758e-15 6.261717029131297e-15 -8.68987802428625e-32 -125.48901832438965 -9.759317970102703 150.16354267693816 -1.3240418343358599e-06 1.5786302028223738e-06 -45.640304433759724 0.0 0.0 3.975693351829396e-16
-0.0004925708053633571 60.38898849487305 -0.0010887212119996548 39.34221266397697 -9.526572000675161 78.20446028300795 8.310584389292474 -23.076042034481485 1.469040610352302 40.13771875994982 82.25134077329491 -43.33943400065004 -7.951386703658794e-16 -3.1805546814635176e-15 -2.3854160110976384e-15 -1.159776042629091 -21.739345616995625 -2.1014847975651487 30.481370327755833 81.51622341914633 -24.963331419407044 3.1805546814635168e-15 -9.931289170612858e-32 -3.578124016646457e-15 4.457076692531304 19.70035136340224 0.025665556093877273 -6.458214959827152e-07 6.668605952607084e-08 8.873191372869766 0.35055501234619385 8.121901133804482 177.65163587749478 114.77675948465375 -15.658058298495927 -166.06989815734204 -5.347652253814325e-06 2.424390701350125e-06 76.5800357346996 -3.1805546814635176e-15 -6.2617170291313e-15 -1.73797560485725e-31 -125.33559648491332 -9.690781275992778 150.27743956146398 4.33659506295496e-06 3.874807660863379e-06 -45.8226348306014 7.951386703658792e-16 2.758691436281349e-33 3.975693351829396e-16
-0.0004869248950853944 60.38899230957031 -0.0010945656104013324 39.352023698293074 -9.566051185843769 78.26602273020087 8.32170788660516 -23.096977806822775 1.4432062436211937 39.9142405104659 82.20347170715088 -43.04913459144491 7.951386703658791e-16 -1.2414111463266072e-32 -1.789062008323228e-15 -1.1308802706557866 -21.694847636635966 -2.1163555700730616 30.653825156876252 81.53503050602608 -25.086978501656766 1.5902773407317584e-15 7.951386703658792e-16 2.9817700138720468e-15 4.609851574843622 19.794612362449225 0.0010988096570227583 -1.0231577963528157e-06 4.7574517521468005e-07 8.820370447507253 0.2475550405162927 8.046306290934035 177.64490981123942 114.83820524198953 -15.264423592213666 -165.77949341834824 -1.026391774302594e-06 -1.6142659240124554e-06 77.26157760564237 0.0 9.93923337957349e-17 0.0 -125.22561431580654 -9.391500839134824 150.31281455797384 7.129823330751754e-07 2.5552040596955823e-06 -45.853981211191865 -7.951386703658792e-16 -2.758691436281349e-33 3.975693351829396e-16
-0.00047488464042544365 60.38898849487305 -0.0010858625173568726 39.29067242693748 -9.56653663562122 78.25232674820938 8.41246829849559 -23.089913055260542 1.5107576516325785 39.37381098537409 82.27310414808943 -42.672705219157606 3.4483642953516866e-32 -7.951386703658792e-16 4.969616689786745e-15 -0.9982566028022631 -21.66038815816671 -2.0333189517692944 30.86897827969451 81.45212747505693 -25.49236913702269 -7.951386703658791e-16 -1.517280289954742e-32 2.1866313435061676e-15 4.682626519145095 19.91258497985671 -0.051579494593254206 6.172281229023252e-07 1.2834324662375401e-06 8.628632730519346 0.04822337076582028 7.841208036054467 177.54641701494606 115.00748846494812 -15.49373880716341 -165.54541836509034 -5.675553803900144e-06 2.9529563374504308e-06 77.25211413139291 -1.5902773407317588e-15 9.939233379573496e-17 -3.1805546814635176e-15 -125.3670563912292 -9.669080138757451 149.92888574003717 1.6623316106265786e-07 4.510398176253804e-07 -45.64239790687395 0.0 0.0 0.0
-0.000484494463307783 60.38899230957031 -0.0010903244838118553 39.24206940856511 -9.503524221079338 78.26926796410814 8.313915467136754 -23.127323603671773 1.4583236578364112 38.78578068495938 82.19240910918687 -41.95097506807477 7.951386703658792e-16 -5.379448300748631e-32 -7.752602036067322e-15 -1.0997774776543705 -21.629440981771022 -2.083326220623036 30.308314643891755 81.49200034911452 -24.80594440942971 1.5902773407317584e-15 7.951386703658791e-16 -5.565970692561154e-15 4.572930412266572 19.946035419249245 -0.0004366154062430406 -2.7095950387798166e-07 2.9943495584173317e-07 8.744112761375806 0.09573000802511665 7.658077995956206 177.2494480038376 115.18329455122685 -15.359693812857092 -165.80139457284614 -2.340243743841927e-09 3.123307462491701e-06 78.13058263123298 0.0 9.939233379573492e-17 0.0 -125.57509635014304 -9.966344786572886 149.7449779431324 7.604722929466523e-08 -3.8723960038868674e-07 -45.40988707188381 0.0 0.0 0.0
